<svg xmlns="http://www.w3.org/2000/svg" xmlns:xlink="http://www.w3.org/1999/xlink" version="1.1"
	width="256" height="256" viewBox="0 0 256 256" xml:space="preserve">

<defs>
</defs>
<g style="stroke: none; stroke-width: 0; stroke-dasharray: none; stroke-linecap: butt; stroke-linejoin: miter; stroke-miterlimit: 10; fill: none; fill-rule: nonzero; opacity: 1;" transform="translate(1.4065934065934016 1.4065934065934016) scale(2.81 2.81)" >
	<path d="M 31.187 70.956 H 20.822 c -0.552 0 -1 -0.447 -1 -1 V 36.617 c 0 -0.552 0.448 -1 1 -1 h 10.365 c 0.552 0 1 0.448 1 1 v 33.339 C 32.187 70.509 31.739 70.956 31.187 70.956 z M 21.822 68.956 h 8.365 V 37.617 h -8.365 V 68.956 z" style="stroke: none; stroke-width: 1; stroke-dasharray: none; stroke-linecap: butt; stroke-linejoin: miter; stroke-miterlimit: 10; fill: rgb(256,256,256); fill-rule: nonzero; opacity: 1;" transform=" matrix(1 0 0 1 0 0) " stroke-linecap="round" />
	<path d="M 26.005 33.062 c -3.862 0 -7.005 -3.143 -7.005 -7.007 c 0 -3.866 3.143 -7.011 7.005 -7.011 s 7.005 3.145 7.005 7.011 C 33.01 29.919 29.867 33.062 26.005 33.062 z M 26.005 21.044 c -2.76 0 -5.005 2.248 -5.005 5.011 c 0 2.761 2.245 5.007 5.005 5.007 s 5.005 -2.246 5.005 -5.007 C 31.01 23.292 28.765 21.044 26.005 21.044 z" style="stroke: none; stroke-width: 1; stroke-dasharray: none; stroke-linecap: butt; stroke-linejoin: miter; stroke-miterlimit: 10; fill: rgb(256,256,256); fill-rule: nonzero; opacity: 1;" transform=" matrix(1 0 0 1 0 0) " stroke-linecap="round" />
	<path d="M 70 70.956 H 59.643 c -0.553 0 -1 -0.447 -1 -1 V 53.743 c 0 -4.442 -0.323 -7.84 -4.385 -7.84 c -3.753 0 -5.215 2.121 -5.215 7.562 v 16.491 c 0 0.553 -0.447 1 -1 1 H 37.686 c -0.552 0 -1 -0.447 -1 -1 V 36.617 c 0 -0.552 0.448 -1 1 -1 h 9.939 c 0.553 0 1 0.448 1 1 v 1.753 c 1.918 -1.937 4.937 -3.58 8.945 -3.58 c 11.834 0 13.43 8.533 13.43 16.88 v 18.285 C 71 70.509 70.553 70.956 70 70.956 z M 60.643 68.956 H 69 V 51.671 c 0 -8.932 -1.943 -14.88 -11.43 -14.88 c -4.694 0 -7.739 2.613 -8.92 4.852 c -0.174 0.328 -0.514 0.533 -0.885 0.533 h -0.141 c -0.553 0 -1 -0.448 -1 -1 v -3.559 h -7.939 v 31.339 h 8.357 V 53.465 c 0 -2.615 0 -9.562 7.215 -9.562 c 6.385 0 6.385 6.16 6.385 9.84 V 68.956 z" style="stroke: none; stroke-width: 1; stroke-dasharray: none; stroke-linecap: butt; stroke-linejoin: miter; stroke-miterlimit: 10; fill: rgb(256,256,256); fill-rule: nonzero; opacity: 1;" transform=" matrix(1 0 0 1 0 0) " stroke-linecap="round" />
	<path d="M 89 90 H 1 c -0.552 0 -1 -0.447 -1 -1 V 1 c 0 -0.552 0.448 -1 1 -1 h 88 c 0.553 0 1 0.448 1 1 v 88 C 90 89.553 89.553 90 89 90 z M 2 88 h 86 V 2 H 2 V 88 z" style="stroke: none; stroke-width: 1; stroke-dasharray: none; stroke-linecap: butt; stroke-linejoin: miter; stroke-miterlimit: 10; fill: rgb(256,256,256); fill-rule: nonzero; opacity: 1;" transform=" matrix(1 0 0 1 0 0) " stroke-linecap="round" />
</g>
</svg>